<svg xmlns="http://www.w3.org/2000/svg" viewBox="0 0 24 24">
  <defs>
    <linearGradient id="bg" x1="0%" y1="0%" x2="100%" y2="100%">
      <stop offset="0%" stop-color="#60A5FA" />
      <stop offset="100%" stop-color="#2563EB" />
    </linearGradient>
  </defs>
  <rect width="24" height="24" rx="6" fill="url(#bg)"/>
  <path fill="#FFFFFF" transform="scale(0.8) translate(3, 3)" d="M18.92 6.01C18.72 5.42 18.16 5 17.5 5h-11c-.66 0-1.21.42-1.42 1.01L3 12v8c0 .55.45 1 1 1h1c.55 0 1-.45 1-1v-1h12v1c0 .55.45 1 1 1h1c.55 0 1-.45 1-1v-8l-2.08-5.99zM6.85 7h10.29l1.08 3.11H5.77L6.85 7zM19 17H5v-5h14v5z"/>
  <circle fill="#FFFFFF" cx="8.4" cy="15" r="1.5"/>
  <circle fill="#FFFFFF" cx="15.6" cy="15" r="1.5"/>
</svg>
