<svg xmlns="http://www.w3.org/2000/svg" viewBox="0 0 64 64">
  <defs>
    <linearGradient id="bg" x1="0%" y1="0%" x2="100%" y2="100%">
      <stop offset="0%" stop-color="#60A5FA" />
      <stop offset="100%" stop-color="#2563EB" />
    </linearGradient>
    <filter id="shadow" x="-20%" y="-20%" width="140%" height="140%">
      <feDropShadow dx="0" dy="6" stdDeviation="5" flood-color="#2563EB" flood-opacity="0.4"/>
    </filter>
  </defs>
  
  <rect x="8" y="4" width="48" height="48" rx="14" fill="url(#bg)" filter="url(#shadow)"/>
  
  <g transform="translate(18, 14) scale(1.166667)">
    <path fill="#FFFFFF" fill-rule="evenodd" d="M18.92 6.01C18.72 5.42 18.16 5 17.5 5h-11c-.66 0-1.21.42-1.42 1.01L3 12v8c0 .55.45 1 1 1h1c.55 0 1-.45 1-1v-1h12v1c0 .55.45 1 1 1h1c.55 0 1-.45 1-1v-8l-2.08-5.99zM6.85 7h10.29l1.08 3.11H5.77L6.85 7zM7.5 16c-.83 0-1.5-.67-1.5-1.5S6.67 13 7.5 13s1.5.67 1.5 1.5S8.33 16 7.5 16zm9 0c-.83 0-1.5-.67-1.5-1.5s.67-1.5 1.5-1.5 1.5.67 1.5 1.5-.67 1.5-1.5 1.5z"/>
  </g>
</svg>
